<mxfile host="app.diagrams.net" modified="2024-06-19T10:20:53.380Z" agent="Mozilla/5.0 (Macintosh; Intel Mac OS X 10_15_7) AppleWebKit/537.36 (KHTML, like Gecko) Chrome/125.0.0.0 Safari/537.36" etag="wEy3nmVdrgn2dqftHLGz" version="24.4.7" type="github">
  <diagram name="Page-1" id="kQRVE3HM4nNfK2c-TPZy">
    <mxGraphModel dx="2249" dy="1263" grid="1" gridSize="10" guides="1" tooltips="1" connect="1" arrows="1" fold="1" page="1" pageScale="1" pageWidth="850" pageHeight="1100" math="0" shadow="0">
      <root>
        <mxCell id="0" />
        <mxCell id="1" parent="0" />
        <mxCell id="U5E91P2yx-g3zM8yly82-9" value="" style="rounded=0;whiteSpace=wrap;html=1;" vertex="1" parent="1">
          <mxGeometry x="162" y="560" width="1028" height="110" as="geometry" />
        </mxCell>
        <mxCell id="U5E91P2yx-g3zM8yly82-1" value="" style="sketch=0;points=[[0,0,0],[0.25,0,0],[0.5,0,0],[0.75,0,0],[1,0,0],[0,1,0],[0.25,1,0],[0.5,1,0],[0.75,1,0],[1,1,0],[0,0.25,0],[0,0.5,0],[0,0.75,0],[1,0.25,0],[1,0.5,0],[1,0.75,0]];outlineConnect=0;fontColor=#232F3E;fillColor=#7AA116;strokeColor=#ffffff;dashed=0;verticalLabelPosition=bottom;verticalAlign=top;align=center;html=1;fontSize=12;fontStyle=0;aspect=fixed;shape=mxgraph.aws4.resourceIcon;resIcon=mxgraph.aws4.s3;" vertex="1" parent="1">
          <mxGeometry x="162" y="560" width="30" height="30" as="geometry" />
        </mxCell>
        <mxCell id="U5E91P2yx-g3zM8yly82-2" value="" style="sketch=0;points=[[0,0,0],[0.25,0,0],[0.5,0,0],[0.75,0,0],[1,0,0],[0,1,0],[0.25,1,0],[0.5,1,0],[0.75,1,0],[1,1,0],[0,0.25,0],[0,0.5,0],[0,0.75,0],[1,0.25,0],[1,0.5,0],[1,0.75,0]];outlineConnect=0;fontColor=#232F3E;fillColor=#ED7100;strokeColor=#ffffff;dashed=0;verticalLabelPosition=bottom;verticalAlign=top;align=center;html=1;fontSize=12;fontStyle=0;aspect=fixed;shape=mxgraph.aws4.resourceIcon;resIcon=mxgraph.aws4.lambda;" vertex="1" parent="1">
          <mxGeometry x="241" y="280" width="78" height="78" as="geometry" />
        </mxCell>
        <mxCell id="U5E91P2yx-g3zM8yly82-3" value="" style="sketch=0;points=[[0,0,0],[0.25,0,0],[0.5,0,0],[0.75,0,0],[1,0,0],[0,1,0],[0.25,1,0],[0.5,1,0],[0.75,1,0],[1,1,0],[0,0.25,0],[0,0.5,0],[0,0.75,0],[1,0.25,0],[1,0.5,0],[1,0.75,0]];outlineConnect=0;fontColor=#232F3E;fillColor=#01A88D;strokeColor=#ffffff;dashed=0;verticalLabelPosition=bottom;verticalAlign=top;align=center;html=1;fontSize=12;fontStyle=0;aspect=fixed;shape=mxgraph.aws4.resourceIcon;resIcon=mxgraph.aws4.textract;" vertex="1" parent="1">
          <mxGeometry x="401" y="280" width="78" height="78" as="geometry" />
        </mxCell>
        <mxCell id="U5E91P2yx-g3zM8yly82-4" value="" style="sketch=0;points=[[0,0,0],[0.25,0,0],[0.5,0,0],[0.75,0,0],[1,0,0],[0,1,0],[0.25,1,0],[0.5,1,0],[0.75,1,0],[1,1,0],[0,0.25,0],[0,0.5,0],[0,0.75,0],[1,0.25,0],[1,0.5,0],[1,0.75,0]];outlineConnect=0;fontColor=#232F3E;fillColor=#E7157B;strokeColor=#ffffff;dashed=0;verticalLabelPosition=bottom;verticalAlign=top;align=center;html=1;fontSize=12;fontStyle=0;aspect=fixed;shape=mxgraph.aws4.resourceIcon;resIcon=mxgraph.aws4.sns;" vertex="1" parent="1">
          <mxGeometry x="560" y="280" width="80" height="80" as="geometry" />
        </mxCell>
        <mxCell id="U5E91P2yx-g3zM8yly82-7" value="" style="sketch=0;points=[[0,0,0],[0.25,0,0],[0.5,0,0],[0.75,0,0],[1,0,0],[0,1,0],[0.25,1,0],[0.5,1,0],[0.75,1,0],[1,1,0],[0,0.25,0],[0,0.5,0],[0,0.75,0],[1,0.25,0],[1,0.5,0],[1,0.75,0]];outlineConnect=0;fontColor=#232F3E;fillColor=#ED7100;strokeColor=#ffffff;dashed=0;verticalLabelPosition=bottom;verticalAlign=top;align=center;html=1;fontSize=12;fontStyle=0;aspect=fixed;shape=mxgraph.aws4.resourceIcon;resIcon=mxgraph.aws4.lambda;" vertex="1" parent="1">
          <mxGeometry x="720" y="280" width="78" height="78" as="geometry" />
        </mxCell>
        <mxCell id="U5E91P2yx-g3zM8yly82-10" value="S3 bucket" style="text;html=1;align=left;verticalAlign=middle;whiteSpace=wrap;rounded=0;" vertex="1" parent="1">
          <mxGeometry x="200" y="560" width="250" height="30" as="geometry" />
        </mxCell>
        <mxCell id="U5E91P2yx-g3zM8yly82-19" value="" style="sketch=0;points=[[0,0,0],[0.25,0,0],[0.5,0,0],[0.75,0,0],[1,0,0],[0,1,0],[0.25,1,0],[0.5,1,0],[0.75,1,0],[1,1,0],[0,0.25,0],[0,0.5,0],[0,0.75,0],[1,0.25,0],[1,0.5,0],[1,0.75,0]];outlineConnect=0;fontColor=#232F3E;fillColor=#ED7100;strokeColor=#ffffff;dashed=0;verticalLabelPosition=bottom;verticalAlign=top;align=center;html=1;fontSize=12;fontStyle=0;aspect=fixed;shape=mxgraph.aws4.resourceIcon;resIcon=mxgraph.aws4.lambda;" vertex="1" parent="1">
          <mxGeometry x="880" y="280" width="78" height="78" as="geometry" />
        </mxCell>
        <mxCell id="U5E91P2yx-g3zM8yly82-20" value="" style="endArrow=classic;html=1;rounded=0;entryX=0;entryY=0.5;entryDx=0;entryDy=0;" edge="1" parent="1" target="U5E91P2yx-g3zM8yly82-12">
          <mxGeometry width="50" height="50" relative="1" as="geometry">
            <mxPoint x="120" y="620" as="sourcePoint" />
            <mxPoint x="110" y="620" as="targetPoint" />
          </mxGeometry>
        </mxCell>
        <mxCell id="U5E91P2yx-g3zM8yly82-21" value="Finance portal back end saves PDF in S3 bucket" style="text;html=1;align=center;verticalAlign=middle;whiteSpace=wrap;rounded=0;" vertex="1" parent="1">
          <mxGeometry x="20" y="605" width="100" height="30" as="geometry" />
        </mxCell>
        <mxCell id="U5E91P2yx-g3zM8yly82-22" value="" style="endArrow=classic;html=1;rounded=0;exitX=0.5;exitY=0;exitDx=0;exitDy=0;entryX=0.5;entryY=1;entryDx=0;entryDy=0;entryPerimeter=0;" edge="1" parent="1" source="U5E91P2yx-g3zM8yly82-12" target="U5E91P2yx-g3zM8yly82-2">
          <mxGeometry width="50" height="50" relative="1" as="geometry">
            <mxPoint x="325" y="500" as="sourcePoint" />
            <mxPoint x="375" y="450" as="targetPoint" />
          </mxGeometry>
        </mxCell>
        <mxCell id="U5E91P2yx-g3zM8yly82-6" value="" style="sketch=0;points=[[0,0,0],[0.25,0,0],[0.5,0,0],[0.75,0,0],[1,0,0],[0,1,0],[0.25,1,0],[0.5,1,0],[0.75,1,0],[1,1,0],[0,0.25,0],[0,0.5,0],[0,0.75,0],[1,0.25,0],[1,0.5,0],[1,0.75,0]];outlineConnect=0;fontColor=#232F3E;fillColor=#E7157B;strokeColor=#ffffff;dashed=0;verticalLabelPosition=bottom;verticalAlign=top;align=center;html=1;fontSize=12;fontStyle=0;aspect=fixed;shape=mxgraph.aws4.resourceIcon;resIcon=mxgraph.aws4.eventbridge;" vertex="1" parent="1">
          <mxGeometry x="260" y="440" width="40" height="40" as="geometry" />
        </mxCell>
        <mxCell id="U5E91P2yx-g3zM8yly82-23" value="EventBridge rule triggers Lambda function" style="text;html=1;align=center;verticalAlign=middle;whiteSpace=wrap;rounded=0;" vertex="1" parent="1">
          <mxGeometry x="160" y="445" width="100" height="30" as="geometry" />
        </mxCell>
        <mxCell id="U5E91P2yx-g3zM8yly82-24" value="" style="endArrow=classic;html=1;rounded=0;exitX=1;exitY=0.5;exitDx=0;exitDy=0;exitPerimeter=0;entryX=0;entryY=0.5;entryDx=0;entryDy=0;entryPerimeter=0;" edge="1" parent="1" source="U5E91P2yx-g3zM8yly82-2" target="U5E91P2yx-g3zM8yly82-3">
          <mxGeometry width="50" height="50" relative="1" as="geometry">
            <mxPoint x="390" y="230" as="sourcePoint" />
            <mxPoint x="440" y="180" as="targetPoint" />
          </mxGeometry>
        </mxCell>
        <mxCell id="U5E91P2yx-g3zM8yly82-25" value="Initiates&lt;br&gt;Textract&lt;br&gt;job" style="text;html=1;align=center;verticalAlign=middle;whiteSpace=wrap;rounded=0;" vertex="1" parent="1">
          <mxGeometry x="320" y="270" width="81" height="30" as="geometry" />
        </mxCell>
        <mxCell id="U5E91P2yx-g3zM8yly82-26" value="" style="endArrow=classic;html=1;rounded=0;exitX=0.5;exitY=1;exitDx=0;exitDy=0;exitPerimeter=0;entryX=0.5;entryY=0;entryDx=0;entryDy=0;" edge="1" parent="1" source="U5E91P2yx-g3zM8yly82-3" target="U5E91P2yx-g3zM8yly82-13">
          <mxGeometry width="50" height="50" relative="1" as="geometry">
            <mxPoint x="400" y="670" as="sourcePoint" />
            <mxPoint x="450" y="620" as="targetPoint" />
          </mxGeometry>
        </mxCell>
        <mxCell id="U5E91P2yx-g3zM8yly82-27" value="Textract working files written back to bucket" style="text;html=1;align=center;verticalAlign=middle;whiteSpace=wrap;rounded=0;" vertex="1" parent="1">
          <mxGeometry x="340" y="445" width="100" height="30" as="geometry" />
        </mxCell>
        <mxCell id="U5E91P2yx-g3zM8yly82-28" value="" style="endArrow=classic;html=1;rounded=0;exitX=1;exitY=0.5;exitDx=0;exitDy=0;exitPerimeter=0;entryX=0;entryY=0.5;entryDx=0;entryDy=0;entryPerimeter=0;" edge="1" parent="1">
          <mxGeometry width="50" height="50" relative="1" as="geometry">
            <mxPoint x="480" y="319" as="sourcePoint" />
            <mxPoint x="562" y="319" as="targetPoint" />
          </mxGeometry>
        </mxCell>
        <mxCell id="U5E91P2yx-g3zM8yly82-29" value="Sends SNS notification when done" style="text;html=1;align=center;verticalAlign=middle;whiteSpace=wrap;rounded=0;" vertex="1" parent="1">
          <mxGeometry x="481" y="270" width="81" height="30" as="geometry" />
        </mxCell>
        <mxCell id="U5E91P2yx-g3zM8yly82-30" value="" style="endArrow=classic;html=1;rounded=0;exitX=1;exitY=0.5;exitDx=0;exitDy=0;exitPerimeter=0;entryX=0;entryY=0.5;entryDx=0;entryDy=0;entryPerimeter=0;" edge="1" parent="1">
          <mxGeometry width="50" height="50" relative="1" as="geometry">
            <mxPoint x="639" y="319" as="sourcePoint" />
            <mxPoint x="721" y="319" as="targetPoint" />
          </mxGeometry>
        </mxCell>
        <mxCell id="U5E91P2yx-g3zM8yly82-31" value="Notification triggers Lambda" style="text;html=1;align=center;verticalAlign=middle;whiteSpace=wrap;rounded=0;" vertex="1" parent="1">
          <mxGeometry x="640" y="270" width="81" height="30" as="geometry" />
        </mxCell>
        <mxCell id="U5E91P2yx-g3zM8yly82-32" value="" style="endArrow=classic;html=1;rounded=0;exitX=0.5;exitY=1;exitDx=0;exitDy=0;exitPerimeter=0;entryX=0.5;entryY=0;entryDx=0;entryDy=0;" edge="1" parent="1">
          <mxGeometry width="50" height="50" relative="1" as="geometry">
            <mxPoint x="760" y="358" as="sourcePoint" />
            <mxPoint x="760" y="600" as="targetPoint" />
          </mxGeometry>
        </mxCell>
        <mxCell id="U5E91P2yx-g3zM8yly82-33" value="Lambda restructures Textract data file" style="text;html=1;align=center;verticalAlign=middle;whiteSpace=wrap;rounded=0;" vertex="1" parent="1">
          <mxGeometry x="660" y="445" width="100" height="30" as="geometry" />
        </mxCell>
        <mxCell id="U5E91P2yx-g3zM8yly82-34" value="" style="endArrow=classic;html=1;rounded=0;entryX=0.5;entryY=1;entryDx=0;entryDy=0;entryPerimeter=0;exitX=1;exitY=0.5;exitDx=0;exitDy=0;edgeStyle=orthogonalEdgeStyle;" edge="1" parent="1" source="U5E91P2yx-g3zM8yly82-15" target="U5E91P2yx-g3zM8yly82-19">
          <mxGeometry width="50" height="50" relative="1" as="geometry">
            <mxPoint x="400" y="290" as="sourcePoint" />
            <mxPoint x="450" y="240" as="targetPoint" />
          </mxGeometry>
        </mxCell>
        <mxCell id="U5E91P2yx-g3zM8yly82-5" value="" style="sketch=0;points=[[0,0,0],[0.25,0,0],[0.5,0,0],[0.75,0,0],[1,0,0],[0,1,0],[0.25,1,0],[0.5,1,0],[0.75,1,0],[1,1,0],[0,0.25,0],[0,0.5,0],[0,0.75,0],[1,0.25,0],[1,0.5,0],[1,0.75,0]];outlineConnect=0;fontColor=#232F3E;fillColor=#E7157B;strokeColor=#ffffff;dashed=0;verticalLabelPosition=bottom;verticalAlign=top;align=center;html=1;fontSize=12;fontStyle=0;aspect=fixed;shape=mxgraph.aws4.resourceIcon;resIcon=mxgraph.aws4.eventbridge;" vertex="1" parent="1">
          <mxGeometry x="899" y="440" width="40" height="40" as="geometry" />
        </mxCell>
        <mxCell id="U5E91P2yx-g3zM8yly82-35" value="EventBridge rule&lt;div&gt;triggers Lambda function&lt;/div&gt;" style="text;html=1;align=center;verticalAlign=middle;whiteSpace=wrap;rounded=0;" vertex="1" parent="1">
          <mxGeometry x="798" y="445" width="100" height="30" as="geometry" />
        </mxCell>
        <mxCell id="U5E91P2yx-g3zM8yly82-36" value="" style="group" vertex="1" connectable="0" parent="1">
          <mxGeometry x="235" y="600" width="90" height="40" as="geometry" />
        </mxCell>
        <mxCell id="U5E91P2yx-g3zM8yly82-12" value="" style="rounded=1;whiteSpace=wrap;html=1;" vertex="1" parent="U5E91P2yx-g3zM8yly82-36">
          <mxGeometry width="90" height="40" as="geometry" />
        </mxCell>
        <mxCell id="U5E91P2yx-g3zM8yly82-11" value="/uploaded" style="text;html=1;align=center;verticalAlign=middle;whiteSpace=wrap;rounded=0;" vertex="1" parent="U5E91P2yx-g3zM8yly82-36">
          <mxGeometry x="15" y="5" width="60" height="30" as="geometry" />
        </mxCell>
        <mxCell id="U5E91P2yx-g3zM8yly82-37" value="" style="group" vertex="1" connectable="0" parent="1">
          <mxGeometry x="395" y="600" width="90" height="40" as="geometry" />
        </mxCell>
        <mxCell id="U5E91P2yx-g3zM8yly82-13" value="" style="rounded=1;whiteSpace=wrap;html=1;" vertex="1" parent="U5E91P2yx-g3zM8yly82-37">
          <mxGeometry width="90" height="40" as="geometry" />
        </mxCell>
        <mxCell id="U5E91P2yx-g3zM8yly82-14" value="/&lt;span style=&quot;background-color: initial;&quot;&gt;analysis&lt;/span&gt;" style="text;html=1;align=center;verticalAlign=middle;whiteSpace=wrap;rounded=0;" vertex="1" parent="U5E91P2yx-g3zM8yly82-37">
          <mxGeometry x="15" y="5" width="60" height="30" as="geometry" />
        </mxCell>
        <mxCell id="U5E91P2yx-g3zM8yly82-38" value="" style="group" vertex="1" connectable="0" parent="1">
          <mxGeometry x="715" y="600" width="90" height="40" as="geometry" />
        </mxCell>
        <mxCell id="U5E91P2yx-g3zM8yly82-15" value="" style="rounded=1;whiteSpace=wrap;html=1;" vertex="1" parent="U5E91P2yx-g3zM8yly82-38">
          <mxGeometry width="90" height="40" as="geometry" />
        </mxCell>
        <mxCell id="U5E91P2yx-g3zM8yly82-16" value="/structured" style="text;html=1;align=center;verticalAlign=middle;whiteSpace=wrap;rounded=0;" vertex="1" parent="U5E91P2yx-g3zM8yly82-38">
          <mxGeometry x="15" y="5" width="60" height="30" as="geometry" />
        </mxCell>
        <mxCell id="U5E91P2yx-g3zM8yly82-39" value="" style="group" vertex="1" connectable="0" parent="1">
          <mxGeometry x="1035" y="600" width="91" height="40" as="geometry" />
        </mxCell>
        <mxCell id="U5E91P2yx-g3zM8yly82-17" value="" style="rounded=1;whiteSpace=wrap;html=1;" vertex="1" parent="U5E91P2yx-g3zM8yly82-39">
          <mxGeometry width="91" height="40" as="geometry" />
        </mxCell>
        <mxCell id="U5E91P2yx-g3zM8yly82-18" value="/input" style="text;html=1;align=center;verticalAlign=middle;whiteSpace=wrap;rounded=0;" vertex="1" parent="U5E91P2yx-g3zM8yly82-39">
          <mxGeometry x="15.166666666666666" y="5" width="60.666666666666664" height="30" as="geometry" />
        </mxCell>
        <mxCell id="U5E91P2yx-g3zM8yly82-41" value="" style="endArrow=classic;html=1;rounded=0;exitX=1;exitY=0.5;exitDx=0;exitDy=0;exitPerimeter=0;edgeStyle=orthogonalEdgeStyle;entryX=0.5;entryY=0;entryDx=0;entryDy=0;" edge="1" parent="1" source="U5E91P2yx-g3zM8yly82-19" target="U5E91P2yx-g3zM8yly82-17">
          <mxGeometry width="50" height="50" relative="1" as="geometry">
            <mxPoint x="400" y="290" as="sourcePoint" />
            <mxPoint x="1080" y="600" as="targetPoint" />
          </mxGeometry>
        </mxCell>
        <mxCell id="U5E91P2yx-g3zM8yly82-42" value="Lambda parses PDF data and writes JSON" style="text;html=1;align=center;verticalAlign=middle;whiteSpace=wrap;rounded=0;" vertex="1" parent="1">
          <mxGeometry x="980" y="445" width="100" height="30" as="geometry" />
        </mxCell>
        <mxCell id="U5E91P2yx-g3zM8yly82-43" value="" style="endArrow=classic;html=1;rounded=0;entryX=0;entryY=0.5;entryDx=0;entryDy=0;" edge="1" parent="1">
          <mxGeometry width="50" height="50" relative="1" as="geometry">
            <mxPoint x="1126" y="619.5" as="sourcePoint" />
            <mxPoint x="1241" y="619.5" as="targetPoint" />
          </mxGeometry>
        </mxCell>
        <mxCell id="U5E91P2yx-g3zM8yly82-44" value="DataBricks pipeline triggered by file arrival" style="text;html=1;align=center;verticalAlign=middle;whiteSpace=wrap;rounded=0;" vertex="1" parent="1">
          <mxGeometry x="1240" y="605" width="100" height="30" as="geometry" />
        </mxCell>
      </root>
    </mxGraphModel>
  </diagram>
</mxfile>
